<?xml version="1.0" standalone="no"?>
<!DOCTYPE svg PUBLIC "-//W3C//DTD SVG 20010904//EN"
 "http://www.w3.org/TR/2001/REC-SVG-20010904/DTD/svg10.dtd">
<svg version="1.0" xmlns="http://www.w3.org/2000/svg"
 width="447.000000pt" height="447.000000pt" viewBox="0 0 447.000000 447.000000"
 preserveAspectRatio="xMidYMid meet">
<metadata>
Created by potrace 1.11, written by Peter Selinger 2001-2013
</metadata>
<g transform="translate(0.000000,447.000000) scale(0.100000,-0.100000)"
fill="#000000" stroke="none">
<path d="M2205 4201 c-16 -10 -45 -35 -64 -54 -19 -20 -39 -33 -45 -30 -6 3
-8 3 -4 -2 9 -10 -145 -131 -202 -158 -8 -4 -37 -21 -65 -37 -49 -29 -110 -59
-210 -105 -100 -45 -345 -116 -450 -130 -27 -4 -53 -9 -56 -11 -13 -7 -190
-21 -297 -23 -64 -1 -76 -4 -98 -26 l-25 -25 4 -743 c2 -408 7 -760 11 -782
16 -89 50 -243 59 -265 3 -8 13 -35 21 -60 34 -102 54 -150 100 -240 129 -251
307 -460 538 -630 49 -35 88 -68 88 -72 0 -4 6 -8 13 -8 6 0 26 -12 42 -28 17
-15 47 -38 67 -52 20 -13 34 -29 31 -35 -4 -5 -3 -7 2 -3 6 6 56 -25 91 -57 6
-5 23 -19 38 -30 16 -11 43 -31 61 -45 18 -14 43 -32 55 -40 12 -8 28 -20 34
-25 6 -6 49 -40 96 -75 47 -35 95 -74 108 -87 12 -13 22 -21 22 -18 0 3 10 -1
22 -9 44 -31 63 -24 205 86 119 92 135 103 145 100 5 -1 7 2 3 8 -3 5 -2 10 3
10 4 0 17 8 28 17 10 10 57 47 104 83 47 35 113 86 147 112 34 26 67 48 73 48
5 0 10 3 10 8 0 4 42 38 93 77 50 38 94 72 97 75 3 3 19 16 35 29 17 12 49 40
71 61 23 22 44 37 48 34 3 -2 4 -1 1 3 -8 10 16 33 29 26 6 -3 8 -3 4 2 -4 4
10 26 32 49 21 22 48 53 60 69 12 15 26 24 32 21 7 -4 8 -2 4 4 -4 6 10 35 31
64 170 234 293 544 318 798 4 36 9 76 11 90 3 20 6 862 4 1358 0 115 -10 124
-146 128 -230 7 -436 44 -646 114 -106 36 -244 97 -323 142 -22 13 -59 34 -82
47 -23 13 -39 29 -36 34 3 6 1 7 -5 3 -12 -7 -139 86 -217 159 -43 41 -76 65
-87 65 -2 0 -16 -9 -33 -19z"/>
</g>
</svg>
